<svg width="49" height="17" viewBox="0 0 49 17" fill="none" xmlns="http://www.w3.org/2000/svg">
<path d="M0.262891 0.0468739H7.93555C9.85768 0.0468739 11.3827 0.555207 12.5105 1.57187C13.6702 2.58854 14.25 3.89115 14.25 5.47969C14.25 7.06823 13.6702 8.37083 12.5105 9.3875C11.3827 10.4042 9.85768 10.9125 7.93555 10.9125H5.38594V16.7266H0.262891V0.0468739ZM5.38594 7.19531H7.24453C7.76875 7.19531 8.18971 7.06029 8.50742 6.79023C8.84102 6.5043 9.00781 6.13893 9.00781 5.69414C9.00781 5.24935 8.84102 4.89193 8.50742 4.62187C8.17383 4.35182 7.75287 4.2168 7.24453 4.2168H5.38594V7.19531ZM15.0451 4.45508V0.0468739H29.6994V4.45508H24.9099V16.7266H19.7869V4.45508H15.0451ZM36.6138 16.7266H31.4908V0.0468739H36.6138V6.26602L41.308 0.0468739H47.3365L41.4271 7.79101L48.5279 16.7266H42.2372L36.6138 9.53047V16.7266Z" fill="white"/>
</svg>
