<svg width="58" height="20" viewBox="0 0 58 20" fill="none" xmlns="http://www.w3.org/2000/svg">
<path d="M0.490517 0.313933H9.54611C11.8147 0.313933 13.6146 0.913889 14.9457 2.1138C16.3144 3.31371 16.9987 4.8511 16.9987 6.72597C16.9987 8.60083 16.3144 10.1382 14.9457 11.3381C13.6146 12.538 11.8147 13.138 9.54611 13.138H6.53695V20H0.490517V0.313933ZM6.53695 8.75082H8.73054C9.34925 8.75082 9.84609 8.59146 10.2211 8.27273C10.6148 7.93525 10.8116 7.50403 10.8116 6.97907C10.8116 6.45411 10.6148 6.03227 10.2211 5.71354C9.82734 5.39481 9.3305 5.23545 8.73054 5.23545H6.53695V8.75082ZM17.9371 5.51668V0.313933H35.2327V5.51668H29.58V20H23.5335V5.51668H17.9371ZM43.3934 20H37.347V0.313933H43.3934V7.65402L48.9336 0.313933H56.0487L49.0742 9.45389L57.4549 20H50.0304L43.3934 11.5069V20Z" fill="white"/>
</svg>
