<svg width="102" height="99" viewBox="0 0 102 99" fill="none" xmlns="http://www.w3.org/2000/svg">
<path d="M50.1353 3.0459C31.8075 3.0459 16.8965 17.5184 16.8965 35.3071C16.8965 57.6656 50.168 95.8584 50.168 95.8584C50.168 95.8584 83.3741 56.566 83.3741 35.3071C83.3741 17.5184 68.4636 3.0459 50.1353 3.0459ZM60.1641 44.7532C57.3988 47.4366 53.7673 48.7786 50.1353 48.7786C46.5038 48.7786 42.8712 47.4366 40.107 44.7532C34.577 39.3863 34.577 30.6534 40.107 25.286C42.7848 22.6858 46.3468 21.2538 50.1353 21.2538C53.9237 21.2538 57.4852 22.6864 60.1641 25.286C65.6942 30.6534 65.6942 39.3863 60.1641 44.7532Z" fill="#15171C"/>
<ellipse cx="50" cy="35" rx="27" ry="26" fill="#EFB566"/>
<g clip-path="url(#clip0_13_0)">
<path d="M68.8816 33.0443L68.8824 33.0439L63.772 22.8229C63.5834 22.4458 63.198 22.2075 62.7762 22.2075H53.3491V18.8491C53.3491 17.0024 51.8467 15.5 50 15.5C48.1533 15.5 46.6509 17.0024 46.6509 18.8491V22.2075H37.2238C36.8021 22.2075 36.4166 22.4458 36.228 22.8229L31.1175 33.0439L31.1183 33.0443C31.0433 33.1942 31 33.3627 31 33.5418C31 36.9736 33.792 39.7655 37.2238 39.7655C40.6556 39.7655 43.4475 36.9736 43.4475 33.5418C43.4475 33.3627 43.4043 33.1942 43.3291 33.0443L43.33 33.0439L39.0251 24.4341H46.6508V46.8018H45.5283C42.4488 46.8018 39.9434 49.3072 39.9434 52.3867C39.9434 53.0015 40.4418 53.5 41.0566 53.5H58.9434C59.5582 53.5 60.0566 53.0015 60.0566 52.3867C60.0566 49.3072 57.5512 46.8018 54.4717 46.8018H53.3491V24.4341H60.9749L56.67 33.0439L56.6708 33.0443C56.5957 33.1942 56.5524 33.3627 56.5524 33.5418C56.5524 36.9736 59.3444 39.7655 62.7762 39.7655C66.208 39.7655 68.9999 36.9736 68.9999 33.5418C69 33.3627 68.9567 33.1942 68.8816 33.0443ZM37.2238 25.8102L40.533 32.4285H33.9146L37.2238 25.8102ZM37.2238 37.539C35.4058 37.539 33.8675 36.3191 33.3843 34.655H41.0632C40.58 36.3191 39.0417 37.539 37.2238 37.539ZM42.3596 51.2734C42.8199 49.9671 44.0666 49.0283 45.5283 49.0283H54.4717C55.9334 49.0283 57.1801 49.9671 57.6405 51.2734H42.3596ZM48.8774 46.8018V24.4341H51.1226V46.8018H48.8774ZM48.8774 22.2075V18.8491C48.8774 18.2301 49.381 17.7266 50 17.7266C50.619 17.7266 51.1226 18.2301 51.1226 18.8491V22.2075H48.8774ZM66.0854 32.4285H59.4671L62.7763 25.8102L66.0854 32.4285ZM62.7762 37.539C60.9583 37.539 59.42 36.3191 58.9368 34.655H66.6157C66.1324 36.3191 64.5941 37.539 62.7762 37.539Z" fill="#15171C"/>
</g>
<defs>
<clipPath id="clip0_13_0">
<rect width="38" height="38" fill="white" transform="translate(31 15.5)"/>
</clipPath>
</defs>
</svg>
