<svg width="88" height="88" viewBox="0 0 88 88" fill="none" xmlns="http://www.w3.org/2000/svg">
<path d="M36.7943 77.5625V77.0126H36.2443H16.8477C15.7276 77.0126 14.8195 76.1045 14.8195 74.9844V2.57812C14.8195 1.45807 15.7276 0.55 16.8477 0.55H71.1526C72.2727 0.55 73.1807 1.45807 73.1807 2.57812V74.9844C73.1807 76.1045 72.2727 77.0126 71.1526 77.0126H51.756H51.206V77.5625V85.4219C51.206 86.0516 50.9135 86.6457 50.4144 87.0295L50.4143 87.0295C50.056 87.3051 49.6202 87.45 49.1777 87.45C49.0036 87.45 48.829 87.4277 48.6572 87.3821L44.1413 86.1828L44.0001 86.1453L43.859 86.1828L39.3428 87.382L39.3427 87.382C38.7341 87.5437 38.085 87.4134 37.5859 87.0295L37.5859 87.0295C37.0868 86.6457 36.7943 86.0516 36.7943 85.4219V77.5625ZM44.5206 82.0866L44.5207 82.0866L46.4586 82.6012L47.1497 82.7847V82.0696V77.2994V76.5814L46.4565 76.7684C45.6724 76.9799 44.8496 77.0945 44.0001 77.0945C43.1506 77.0945 42.3279 76.9799 41.5438 76.7684L40.8505 76.5814V77.2994V82.0696V82.7847L41.5417 82.6012L43.4796 82.0866L43.4796 82.0866C43.6499 82.0414 43.825 82.0188 44.0001 82.0188C44.1752 82.0188 44.3503 82.0414 44.5206 82.0866ZM52.3041 72.1438L51.8628 72.9563H52.7874H68.0243H68.5743H68.5745V72.4063H69.1243V5.15625V4.60625H68.5743H19.4258H18.8758V5.15625V72.4063V72.9563H19.4258H35.2128H36.1376L35.6961 72.1437C34.9702 70.8076 34.5575 69.2778 34.5575 67.6521C34.5575 62.446 38.7939 58.2096 44.0001 58.2096C49.2064 58.2096 53.4428 62.4459 53.4428 67.6521C53.4428 69.2778 53.03 70.8074 52.3041 72.1438ZM44.0001 73.0383C46.9707 73.0383 49.3865 70.6227 49.3865 67.6521C49.3865 64.6815 46.9707 62.2658 44.0001 62.2658C41.0296 62.2658 38.6137 64.6817 38.6137 67.6521C38.6137 70.6225 41.0296 73.0383 44.0001 73.0383Z" fill="#EFB566" stroke="#15171C" stroke-width="1.1"/>
<path d="M59.5332 51.2059H28.4668C27.3467 51.2059 26.4387 50.2978 26.4387 49.1777C26.4387 48.0577 27.3467 47.1496 28.4668 47.1496H59.5332C60.6533 47.1496 61.5613 48.0577 61.5613 49.1777C61.5613 50.2978 60.6533 51.2059 59.5332 51.2059Z" fill="#EFB566" stroke="#15171C" stroke-width="1.1"/>
<path d="M59.5332 40.8504H28.4668C27.3467 40.8504 26.4387 39.9423 26.4387 38.8223C26.4387 37.7022 27.3467 36.7941 28.4668 36.7941H59.5332C60.6533 36.7941 61.5613 37.7022 61.5613 38.8223C61.5613 39.9423 60.6533 40.8504 59.5332 40.8504Z" fill="#EFB566" stroke="#15171C" stroke-width="1.1"/>
<path d="M59.5332 30.4949H28.4668C27.3467 30.4949 26.4387 29.5869 26.4387 28.4668C26.4387 27.3467 27.3467 26.4387 28.4668 26.4387H59.5332C60.6533 26.4387 61.5613 27.3467 61.5613 28.4668C61.5613 29.5869 60.6533 30.4949 59.5332 30.4949Z" fill="#EFB566" stroke="#15171C" stroke-width="1.1"/>
<path d="M49.1777 20.1395H28.4668C27.3467 20.1395 26.4387 19.2314 26.4387 18.1113C26.4387 16.9913 27.3467 16.0832 28.4668 16.0832H49.1777C50.2978 16.0832 51.2059 16.9913 51.2059 18.1113C51.2059 19.2314 50.2978 20.1395 49.1777 20.1395Z" fill="#EFB566" stroke="#15171C" stroke-width="1.1"/>
</svg>
