<svg width="88" height="88" viewBox="0 0 88 88" fill="none" xmlns="http://www.w3.org/2000/svg">
<path d="M5.15625 58.1238H4.60625V58.6738V63.873V64.423H5.15625H82.8438H83.3938V63.873V58.6738V58.1238H82.8438H5.15625ZM5.2751 43.9162L4.60625 43.7682V44.4532V53.5176V54.0676H5.15625H14.2206H14.9056L14.7576 53.3987C13.7135 48.6802 9.99358 44.9605 5.2751 43.9162ZM19.4664 13.2215H18.9937L18.9226 13.6888C17.8399 20.8103 12.195 26.4552 5.07358 27.5379L4.60625 27.6089V28.0816V39.2076V39.6803L5.07358 39.7514C12.1951 40.8341 17.8401 46.479 18.9226 53.6004L18.9937 54.0677H19.4664H68.5338H69.0065L69.0775 53.6004C70.1602 46.4789 75.8051 40.8339 82.9266 39.7514L83.3939 39.6803V39.2076V28.0816V27.6089L82.9266 27.5379C75.8051 26.4552 70.1601 20.8103 69.0775 13.6888L69.0065 13.2215H68.5338H19.4664ZM83.3938 44.4532V43.7682L82.7249 43.9162C78.0064 44.9603 74.2865 48.6802 73.2424 53.3987L73.0944 54.0676H73.7794H82.8438H83.3938V53.5176V44.4532ZM82.7249 23.3728L83.3938 23.5209V22.8358V13.7715V13.2215H82.8438H73.7794H73.0944L73.2424 13.8903C74.2865 18.6088 78.0064 22.3285 82.7249 23.3728ZM14.7576 13.8903L14.9056 13.2215H14.2206H5.15625H4.60625V13.7715V22.8358V23.5208L5.27508 23.3728C9.9936 22.3287 13.7133 18.6088 14.7576 13.8903ZM82.8438 74.7785H83.3938V74.2285V69.0293V68.4793H82.8438H5.15625H4.60625V69.0293V74.2285V74.7785H5.15625H82.8438ZM2.57812 9.16523H85.4219C86.5419 9.16523 87.45 10.0733 87.45 11.1934V76.8066C87.45 77.9267 86.5419 78.8348 85.4219 78.8348H2.57812C1.45807 78.8348 0.55 77.9267 0.55 76.8066V11.1934C0.55 10.0733 1.45807 9.16523 2.57812 9.16523Z" fill="#EFB566" stroke="#15171C" stroke-width="1.1"/>
<path d="M56.3836 33.6445C56.3836 40.4724 50.8279 46.0281 44 46.0281C37.1721 46.0281 31.6164 40.4724 31.6164 33.6445C31.6164 26.8167 37.1721 21.2609 44 21.2609C50.8279 21.2609 56.3836 26.8167 56.3836 33.6445ZM52.3273 33.6445C52.3273 29.0523 48.5922 25.3172 44 25.3172C39.4078 25.3172 35.6727 29.0523 35.6727 33.6445C35.6727 38.2367 39.4078 41.9719 44 41.9719C48.5922 41.9719 52.3273 38.2367 52.3273 33.6445Z" fill="#EFB566" stroke="#15171C" stroke-width="1.1"/>
</svg>
