<svg width="88" height="88" viewBox="0 0 88 88" fill="none" xmlns="http://www.w3.org/2000/svg">
<path d="M55.9319 41.1618L55.1311 41.9047L56.2048 42.1057L72.3561 45.1281C78.1541 46.2132 82.602 50.866 83.4248 56.707L87.4302 85.1389C87.512 85.7205 87.3378 86.309 86.9526 86.7522C86.5674 87.1954 86.0089 87.45 85.4218 87.45H2.57803C1.99088 87.45 1.43244 87.1954 1.04719 86.7522C0.662069 86.309 0.487987 85.7206 0.569813 85.1389L4.575 56.707C5.39783 50.8662 9.8459 46.2132 15.6437 45.1281L31.795 42.1055L32.8687 41.9046L32.0679 41.1617C28.6068 37.951 26.4386 33.3691 26.4386 28.2896V18.1113C26.4386 8.42846 34.317 0.55 43.9999 0.55C53.6828 0.55 61.5612 8.42846 61.5612 18.1115V28.2898C61.5612 33.3691 59.393 37.9511 55.9319 41.1618ZM47.0332 64.8412L47.0661 64.7089L47.0335 64.5766L44.5339 54.4497L43.4659 54.4497L40.9664 64.5764L40.9337 64.7088L40.9666 64.841L43.4662 74.882L44.5336 74.882L47.0332 64.8412ZM41.2421 46.5327L41.4104 45.8509H40.7082H36.9431H36.2394L36.4094 46.5338L38.3 54.1284L39.3677 54.1274L41.2421 46.5327ZM46.5896 45.8507L46.7579 46.5325L48.6323 54.1272L49.7 54.1283L51.5906 46.5336L51.7606 45.8507H51.0569H47.2918H46.5896ZM56.7885 20.8593L57.505 21.0868V20.335V18.1113C57.505 10.6641 51.4471 4.60625 43.9999 4.60625C36.5527 4.60625 30.4948 10.6641 30.495 18.1115V20.6224V21.1724H31.045H32.5015C39.9626 21.1724 44.9175 18.8971 47.367 14.0399L46.8759 13.7923L47.367 14.0399C47.7524 13.2757 48.5755 12.8356 49.4255 12.9403L49.4255 12.9403C50.2748 13.0448 50.9673 13.6713 51.1561 14.5064L51.1559 14.5064L51.1589 14.5184C51.1585 14.5165 51.1595 14.5208 51.1606 14.5251L51.1654 14.5439C51.1695 14.5596 51.1754 14.5816 51.1832 14.6095C51.1987 14.6653 51.2217 14.7446 51.2531 14.8439C51.3159 15.0424 51.4122 15.3216 51.5488 15.6531C51.8211 16.3142 52.2575 17.1933 52.914 18.0557C53.9625 19.4331 55.2457 20.3694 56.7885 20.8593ZM31.0448 25.2287H30.4948V25.7787V28.2896C30.4948 35.7368 36.5527 41.7947 43.9999 41.7947C51.4471 41.7947 57.505 35.7368 57.505 28.2896V25.6372V25.1791L57.0544 25.0963C54.0153 24.5379 51.4531 22.9226 49.5435 20.3213C49.4103 20.1399 49.284 19.9586 49.1644 19.7785L48.783 19.2041L48.3077 19.7036C44.8459 23.3423 39.5851 25.2287 32.5013 25.2287H31.0448ZM32.2635 46.6711L32.1382 46.168L31.6286 46.2634L16.39 49.1151C12.3053 49.8796 9.17132 53.1581 8.59165 57.2728L5.00015 82.767L4.91186 83.3938H5.54477H40.7013H41.405L41.235 82.7109L32.2635 46.6711ZM46.7648 82.7109L46.5948 83.3938H47.2985H82.4551H83.088L82.9997 82.767L79.4082 57.2728C78.8285 53.1581 75.6943 49.8794 71.6098 49.1151L56.3712 46.2634L55.8616 46.168L55.7364 46.6711L46.7648 82.7109Z" fill="#EFB566" stroke="#15171C" stroke-width="1.1"/>
</svg>
