<svg width="80" height="80" viewBox="0 0 80 80" fill="none" xmlns="http://www.w3.org/2000/svg">
<g clip-path="url(#clip0_283_563)">
<path d="M32.9492 75.55H33.4992V75V5V4.45H32.9492H4.6875H4.1375V5V75V75.55H4.6875H32.9492ZM2.34375 0.8625H35.293C36.2836 0.8625 37.0867 1.66563 37.0867 2.65625V77.3438C37.0867 78.3344 36.2836 79.1375 35.293 79.1375H2.34375C1.35313 79.1375 0.55 78.3344 0.55 77.3438V2.65625C0.55 1.66563 1.35313 0.8625 2.34375 0.8625Z" fill="#EFB566" stroke="#15171C" stroke-width="1.1"/>
<path d="M75.3125 75.5H75.8125V75V5V4.5H75.3125H47.0508H46.5508V5V75V75.5H47.0508H75.3125ZM44.707 0.8125H77.6563C78.6745 0.8125 79.5 1.63802 79.5 2.65625V77.3438C79.5 78.362 78.6745 79.1875 77.6563 79.1875H44.707C43.6888 79.1875 42.8633 78.362 42.8633 77.3438V2.65625C42.8633 1.63802 43.6888 0.8125 44.707 0.8125Z" fill="#EFB566" stroke="#15171C"/>
<path d="M27.7228 18.5054C27.7228 23.4149 23.7279 27.4098 18.8184 27.4098C13.909 27.4098 9.91406 23.4149 9.91406 18.5054C9.91406 13.596 13.909 9.60107 18.8184 9.60107C23.7279 9.60107 27.7228 13.596 27.7228 18.5054ZM24.0353 18.5056C24.0353 15.6285 21.6955 13.2887 18.8184 13.2887C15.9413 13.2887 13.6016 15.6287 13.6016 18.5056C13.6016 21.3825 15.9413 23.7225 18.8184 23.7225C21.6955 23.7225 24.0353 21.3827 24.0353 18.5056Z" fill="#EFB566" stroke="#15171C"/>
<path d="M70.0871 18.5054C70.0871 23.4149 66.0922 27.4098 61.1827 27.4098C56.2734 27.4098 52.2783 23.4149 52.2783 18.5054C52.2783 13.596 56.2732 9.60107 61.1827 9.60107C66.0922 9.60107 70.0871 13.596 70.0871 18.5054ZM66.3996 18.5056C66.3996 15.6285 64.0598 13.2887 61.1827 13.2887C58.3058 13.2887 55.9658 15.6285 55.9658 18.5056C55.9658 21.3827 58.3056 23.7225 61.1827 23.7225C64.0598 23.7225 66.3996 21.3827 66.3996 18.5056Z" fill="#EFB566" stroke="#15171C"/>
<path d="M14.1016 36.8242H13.6016V37.3242V65.5859V66.0859H14.1016H23.5352H24.0352V65.5859V37.3242V36.8242H23.5352H14.1016ZM25.8789 69.7734H11.7578C10.7396 69.7734 9.91406 68.9479 9.91406 67.9297V34.9805C9.91406 33.9622 10.7396 33.1367 11.7578 33.1367H25.8789C26.8971 33.1367 27.7227 33.9622 27.7227 34.9805V67.9297C27.7227 68.9479 26.8971 69.7734 25.8789 69.7734Z" fill="#EFB566" stroke="#15171C"/>
<path d="M56.4648 36.8242H55.9648V37.3242V65.5859V66.0859H56.4648H65.8984H66.3984V65.5859V37.3242V36.8242H65.8984H56.4648ZM68.2422 69.7734H54.1211C53.1029 69.7734 52.2773 68.9479 52.2773 67.9297V34.9805C52.2773 33.9622 53.1029 33.1367 54.1211 33.1367H68.2422C69.2604 33.1367 70.0859 33.9622 70.0859 34.9805V67.9297C70.0859 68.9479 69.2604 69.7734 68.2422 69.7734Z" fill="#EFB566" stroke="#15171C"/>
</g>
<defs>
<clipPath id="clip0_283_563">
<rect width="80" height="80" fill="white"/>
</clipPath>
</defs>
</svg>
