<svg width="88" height="88" viewBox="0 0 88 88" fill="none" xmlns="http://www.w3.org/2000/svg">
<path d="M66.7391 31.0664V31.6164H67.2891H75.0664C76.1865 31.6164 77.0945 32.5245 77.0945 33.6445V85.4219C77.0945 86.5419 76.1865 87.45 75.0664 87.45H12.9336C11.8135 87.45 10.9055 86.5419 10.9055 85.4219V33.6445C10.9055 32.5245 11.8135 31.6164 12.9336 31.6164H20.7109H21.2609V31.0664V23.2891C21.2609 10.7512 31.4621 0.55 44 0.55C56.5379 0.55 66.7391 10.7512 66.7391 23.2891V31.0664ZM51.7773 31.6164H52.3273V31.0664V23.2891C52.3273 18.6969 48.5922 14.9617 44 14.9617C39.4078 14.9617 35.6727 18.6969 35.6727 23.2891V31.0664V31.6164H36.2227H51.7773ZM62.1328 31.6164H62.6828V31.0664V23.2891C62.6828 12.9868 54.3022 4.60625 44 4.60625C33.6978 4.60625 25.3172 12.9868 25.3172 23.2891V31.0664V31.6164H25.8672H31.0664H31.6164V31.0664V23.2891C31.6164 16.4612 37.1721 10.9055 44 10.9055C50.8279 10.9055 56.3836 16.4612 56.3836 23.2891V31.0664V31.6164H56.9336H62.1328ZM72.4883 83.3938H73.0383V82.8438V36.2227V35.6727H72.4883H15.5117H14.9617V36.2227V82.8438V83.3938H15.5117H72.4883Z" fill="#EFB566" stroke="#15171C" stroke-width="1.1"/>
<path d="M41.9719 62.0021V61.6132L41.6052 61.4836C38.8045 60.4934 36.7941 57.8204 36.7941 54.6885C36.7941 50.7156 40.0272 47.4826 44 47.4826C47.9728 47.4826 51.2059 50.7156 51.2059 54.6885C51.2059 57.8204 49.1955 60.4933 46.3948 61.4836L46.0281 61.6132V62.0021V69.5557C46.0281 70.6757 45.1201 71.5838 44 71.5838C42.8799 71.5838 41.9719 70.6757 41.9719 69.5557V62.0021ZM47.1496 54.6885C47.1496 52.9513 45.7372 51.5389 44 51.5389C42.2628 51.5389 40.8504 52.9513 40.8504 54.6885C40.8504 56.4257 42.2628 57.8381 44 57.8381C45.7372 57.8381 47.1496 56.4257 47.1496 54.6885Z" fill="#EFB566" stroke="#15171C" stroke-width="1.1"/>
</svg>
