<svg width="88" height="78" viewBox="0 0 88 78" fill="none" xmlns="http://www.w3.org/2000/svg">
<path d="M61.5613 15.7109V16.2609H62.1113H85.4219C86.5419 16.2609 87.45 17.169 87.45 18.2891V65.125C87.45 71.8226 82.0001 77.2723 75.3027 77.2723H12.6973C5.99986 77.2723 0.55 71.8226 0.55 65.125V18.2891C0.55 17.169 1.45807 16.2609 2.57812 16.2609H25.8888H26.4388V15.7109V10.5877C26.4388 5.15134 30.8626 0.727734 36.2988 0.727734H51.7014C57.1376 0.727734 61.5613 5.15134 61.5613 10.5877V15.7109ZM38.1502 42.9557H37.6002V43.5057V49.3555C37.6002 52.8848 40.4708 55.7552 44 55.7552C47.5292 55.7552 50.3998 52.8848 50.3998 49.3555V43.5057V42.9557H49.8498H38.1502ZM32.8773 46.1481L33.544 46.2928V45.6107V40.9276C33.544 39.8075 34.4521 38.8995 35.5721 38.8995H52.4279C53.5479 38.8995 54.456 39.8075 54.456 40.9277V45.6108V46.293L55.1227 46.1483C70.2433 42.8663 81.7435 33.0191 83.2288 20.9343L83.3046 20.3172H82.6829H5.31695H4.69522L4.77106 20.9343C6.25634 33.0191 17.7567 42.8664 32.8773 46.1481ZM56.9549 16.2609H57.5049V15.7109V10.5877C57.5049 7.38697 54.9017 4.78398 51.7012 4.78398H36.2986C33.2836 4.78398 30.7986 7.09404 30.5208 10.0377H30.4947V10.5877V15.7109V16.2609H31.0447H56.9549ZM5.60697 33.8472L4.60625 32.4162V34.1624V65.125C4.60625 69.5869 8.23552 73.216 12.6973 73.216H75.3027C79.7645 73.216 83.3938 69.5869 83.3938 65.125V34.1624V32.4163L82.393 33.8472C80.3478 36.7717 77.7062 39.4791 74.5066 41.8787C68.9619 46.0371 62.1825 48.9317 54.7909 50.3608L54.4056 50.4353L54.3507 50.8239C53.6346 55.8962 49.2658 59.8113 44 59.8113C38.7342 59.8113 34.3654 55.8962 33.6493 50.8239L33.5944 50.4353L33.2091 50.3608C25.8175 48.9317 19.038 46.0371 13.4934 41.8787C10.2938 39.4791 7.65221 36.7718 5.60697 33.8472Z" fill="#EFB566" stroke="#15171C" stroke-width="1.1"/>
</svg>
