<svg width="88" height="88" viewBox="0 0 88 88" fill="none" xmlns="http://www.w3.org/2000/svg">
<g clip-path="url(#clip0_283_579)">
<path d="M46.5762 77.0945H46.0262V77.6445V82.8438V83.3938H46.5762H82.8418H83.3918V82.8438V77.6445V77.0945H82.8418H46.5762ZM41.9699 85.4219V75.0664C41.9699 73.9463 42.8778 73.0383 43.998 73.0383H85.4199C86.54 73.0383 87.448 73.9464 87.448 75.0664V85.4219C87.448 86.5419 86.54 87.45 85.4199 87.45H43.998C42.878 87.45 41.9699 86.5419 41.9699 85.4219Z" fill="#EFB566" stroke="#15171C" stroke-width="1.1"/>
<path d="M44.7198 46.1438L44.3662 45.7903L44.0127 46.1438L12.8848 77.2718L13.2 77.587L12.8847 77.2718C11.4706 78.6861 9.61341 79.3934 7.75412 79.3934C5.89485 79.3934 4.03763 78.6859 2.62348 77.2718C-0.205224 74.443 -0.205224 69.8392 2.62348 67.0105L33.7514 35.8827L34.105 35.5292L33.7514 35.1756L30.0748 31.499L29.7213 31.1455L29.3677 31.499L27.5295 33.3372L27.5295 33.3373C27.1399 33.727 26.6113 33.946 26.0602 33.946C25.5091 33.946 24.9804 33.727 24.5909 33.3373L24.5908 33.3372L17.2684 26.0148C16.4569 25.2033 16.4569 23.8875 17.2684 23.076L39.2356 1.10862C40.047 0.29719 41.3629 0.297062 42.1745 1.10862L49.4969 8.43118L49.8397 8.08835L49.4969 8.43118C49.8867 8.82096 50.1056 9.34934 50.1056 9.90054C50.1056 10.4516 49.8866 10.9801 49.4969 11.3699L47.6587 13.2081L47.3051 13.5616L47.6587 13.9152L65.9799 32.2364L66.3334 32.5899L66.687 32.2364L68.5252 30.3982C69.3368 29.5866 70.6526 29.5866 71.464 30.3982L71.8176 30.0446L71.464 30.3982L78.7866 37.7207C79.5982 38.5323 79.5982 39.848 78.7866 40.6596L56.8193 62.627L56.8191 62.6271C56.4135 63.033 55.8825 63.2357 55.3499 63.2357C54.8175 63.2357 54.2865 63.0329 53.8806 62.627L46.558 55.3044C45.7464 54.4928 45.7464 53.1771 46.558 52.3655L48.3962 50.5273L48.7497 50.1738L48.3962 49.8202L44.7198 46.1438ZM44.7351 10.2541L45.0886 9.90053L44.7351 9.54698L41.0585 5.87057L40.7049 5.51703L40.3514 5.87058L22.0302 24.1918L21.6767 24.5453L22.0302 24.8989L25.7066 28.5753L26.0602 28.9288L26.4137 28.5753L44.7351 10.2541ZM51.32 53.4815L50.9664 53.835L51.32 54.1886L54.9964 57.865L55.3499 58.2186L55.7035 57.865L74.0247 39.5438L74.3782 39.1903L74.0247 38.8367L70.3482 35.1603L69.9947 34.8068L69.6411 35.1603L51.32 53.4815ZM51.3353 46.8813L51.6888 47.2349L52.0424 46.8813L63.0411 35.8825L63.3947 35.529L63.0411 35.1754L44.72 16.8542L44.3664 16.5007L44.0129 16.8542L33.0139 27.853L32.6603 28.2066L33.0139 28.5602L51.3353 46.8813ZM37.3974 38.8216L37.0438 38.468L36.6903 38.8216L5.56236 69.9494C4.35355 71.1582 4.35355 73.1241 5.56236 74.3329L5.56245 74.333C6.77156 75.5415 8.737 75.5415 9.94598 74.3329L9.94604 74.3329L41.0738 43.2051L41.4274 42.8516L41.0738 42.498L37.3974 38.8216Z" fill="#EFB566" stroke="#15171C"/>
</g>
<defs>
<clipPath id="clip0_283_579">
<rect width="88" height="88" fill="white"/>
</clipPath>
</defs>
</svg>
