<svg width="88" height="88" viewBox="0 0 88 88" fill="none" xmlns="http://www.w3.org/2000/svg">
<path d="M18.2848 44.4773L18.2847 44.4772C18.1383 43.873 18.2774 43.2348 18.662 42.7459C19.0465 42.2572 19.634 41.9719 20.256 41.9719H35.955C36.577 41.9719 37.1645 42.2572 37.549 42.7459L37.9813 42.4059L37.549 42.7459C37.9336 43.2348 38.0727 43.8728 37.9263 44.4772L37.9262 44.4773C37.1905 47.516 36.2437 50.5132 34.7119 52.7447C33.1998 54.9473 31.1359 56.3836 28.1055 56.3836C25.0751 56.3836 23.0112 54.9473 21.4991 52.7447C19.9673 50.5132 19.0205 47.516 18.2848 44.4773ZM23.663 46.0281H22.8987L23.1415 46.7528C24.0243 49.3878 24.9286 50.8014 25.8123 51.5478C26.7353 52.3273 27.5774 52.3273 28.1056 52.3273H28.1057H28.1058C28.6339 52.3273 29.476 52.3273 30.399 51.5478C31.2828 50.8014 32.1871 49.3878 33.0698 46.7528L33.3126 46.0281H32.5483H23.663Z" fill="#EFB566" stroke="#15171C" stroke-width="1.1"/>
<path d="M40.5335 28.7177L40.5293 28.7517V28.752C40.2873 30.683 40.061 32.378 39.8378 33.9328L39.8377 33.9328C39.6944 34.9313 38.839 35.6727 37.8302 35.6727H18.3808C17.3722 35.6727 16.5167 34.9313 16.3732 33.9328C16.1493 32.3735 15.9217 30.6679 15.6774 28.718C14.2222 17.0822 15.649 8.95153 19.7047 4.35716L19.3031 4.00259L19.7047 4.35716C21.9073 1.86211 24.8051 0.55 28.1055 0.55C31.4059 0.55 34.3037 1.86211 36.5062 4.35716C40.562 8.95153 41.9887 17.0823 40.5335 28.7177ZM20.0809 31.1395L20.1448 31.6164H20.626H35.585H36.0661L36.1301 31.1396C36.253 30.2237 36.3785 29.2536 36.5087 28.2139L36.5087 28.2138C37.1287 23.2557 37.182 18.9001 36.6804 15.325C36.1801 11.7591 35.1201 8.9161 33.4652 7.04143L33.0529 7.40541L33.4652 7.04142C32.0449 5.43251 30.2309 4.60625 28.1055 4.60625C25.98 4.60625 24.166 5.43251 22.7457 7.04142L22.7457 7.04143C21.0909 8.9161 20.0309 11.7591 19.5306 15.325C19.0289 18.9002 19.0822 23.2559 19.7023 28.2142L19.7023 28.2143C19.8328 29.255 19.9583 30.2251 20.0809 31.1395Z" fill="#EFB566" stroke="#15171C" stroke-width="1.1"/>
<path d="M50.0252 75.5555L50.0252 75.5554C49.8752 74.9362 50.0177 74.2823 50.4118 73.7814C50.8058 73.2806 51.4077 72.9883 52.045 72.9883H67.7441C68.3814 72.9883 68.9834 73.2806 69.3774 73.7814C69.7714 74.2823 69.9139 74.9361 69.7639 75.5554L69.7639 75.5555C69.028 78.595 68.0796 81.5999 66.5423 83.8394C65.023 86.0527 62.9448 87.5 59.8946 87.5C56.8445 87.5 54.7663 86.0527 53.247 83.8394C51.7096 81.5999 50.7612 78.595 50.0252 75.5555ZM55.4521 77.1445H54.7573L54.978 77.8034C55.8597 80.4351 56.7603 81.8384 57.6336 82.576C58.5427 83.3438 59.3696 83.3438 59.8946 83.3438H59.8947H59.8948C60.4199 83.3438 61.2468 83.3438 62.1559 82.576C63.0292 81.8384 63.9298 80.4351 64.8115 77.8034L65.0322 77.1445H64.3374H55.4521Z" fill="#EFB566" stroke="#15171C"/>
<path d="M48.1137 65.0063L47.619 65.0774L48.1137 65.0063C47.8889 63.4419 47.6614 61.736 47.4178 59.7906C45.9623 48.1518 47.3866 40.0018 51.4573 35.3905L51.0825 35.0596L51.4573 35.3905C53.6692 32.8848 56.5805 31.5664 59.8955 31.5664C63.2106 31.5664 66.1218 32.8848 68.3337 35.3905L68.6965 35.0702L68.3337 35.3905C72.4045 40.0018 73.8288 48.1518 72.3732 59.7903L72.3693 59.8212V59.8217C72.1265 61.759 71.9001 63.4551 71.6773 65.0064C71.5303 66.0294 70.6537 66.7891 69.6202 66.7891H50.1708C49.1373 66.7891 48.2607 66.0294 48.1137 65.0063ZM51.9203 62.1994L51.9785 62.6328H52.4159H67.3748H67.8123L67.8704 62.1992C67.993 61.2849 68.1186 60.3149 68.2489 59.2741L68.2489 59.274C68.8686 54.3188 68.9216 49.9678 68.4208 46.3984C67.9211 42.8372 66.8633 40.0053 65.2176 38.1411L64.8428 38.472L65.2176 38.1411C63.8065 36.5426 62.0063 35.7228 59.8953 35.7228C57.7844 35.7228 55.984 36.5428 54.5731 38.1411L54.5731 38.1411C52.9274 40.0054 51.8696 42.8374 51.3699 46.3986C50.8691 49.9681 50.9221 54.3192 51.5418 59.2745L51.5418 59.2746C51.6719 60.3138 51.7974 61.2838 51.9203 62.1994Z" fill="#EFB566" stroke="#15171C"/>
</svg>
