<svg width="84" height="88" viewBox="0 0 84 88" fill="none" xmlns="http://www.w3.org/2000/svg">
<path d="M81.8237 33.6244L81.6549 34.1319L82.1576 34.3148C82.8981 34.5842 83.45 35.3304 83.45 36.2315V77.6534C83.45 78.7978 82.5706 79.6815 81.5391 79.6815H2.46094C1.42943 79.6815 0.55 78.7978 0.55 77.6534V36.2315C0.55 35.087 1.42943 34.2034 2.46094 34.2034H48.7648H49.0001L49.1626 34.0331L68.1729 14.1176C68.1741 14.1164 68.1751 14.1153 68.1761 14.1142C68.1762 14.1141 68.1764 14.114 68.1765 14.1139C68.1777 14.1126 68.1787 14.1115 68.1796 14.1105L68.2323 14.0554L71.6951 10.4276C74.3794 7.61553 78.7373 7.61553 81.4216 10.4276L81.8188 10.0485L81.4216 10.4277C82.7268 11.7948 83.4487 13.6153 83.4487 15.5594C83.4487 17.5035 82.7268 19.3239 81.4216 20.6911L81.8195 21.0709L81.4216 20.6911L79.6389 22.5587L79.2801 22.9346L79.635 23.3141C82.2476 26.1084 82.9843 30.1343 81.8237 33.6244ZM68.2698 13.9786C68.2721 13.9738 68.2707 13.9772 68.2664 13.9856L68.2698 13.9786ZM76.8817 34.2034H77.1555L77.3205 33.9848C79.0522 31.6921 78.9353 28.3658 76.9621 26.2129L76.5648 25.7794L76.1588 26.2047L69.4112 33.2736L68.5237 34.2034H69.8091H76.8817ZM76.1604 19.67L76.5583 20.0868L76.9561 19.67L78.737 17.8043C79.3128 17.2012 79.6268 16.4016 79.6268 15.559C79.6268 14.7165 79.3128 13.9169 78.737 13.3138C78.1406 12.6889 77.3511 12.3721 76.5585 12.3721C75.7659 12.3721 74.9764 12.6889 74.3798 13.3134L74.3797 13.3136L72.5988 15.1793L72.2363 15.559L72.5988 15.9388L76.1604 19.67ZM73.476 23.3162L73.8385 22.9364L73.476 22.5567L69.9144 18.8254L69.5166 18.4086L69.1187 18.8254L36.9948 52.4791L36.9947 52.4791C35.3836 54.1674 34.6257 56.9968 34.2854 59.186L34.1678 59.942L34.9219 59.8125C37.0225 59.4518 39.7451 58.6534 41.3521 56.9698L73.476 23.3162ZM79.0781 75.6252H79.6281V75.0752V38.8096V38.2596H79.0781H78.9708H78.7355L78.573 38.4298L74.3795 42.823L74.3795 42.823C74.0043 43.2162 73.5188 43.408 73.0373 43.408C72.5557 43.408 72.0705 43.2164 71.6952 42.823L71.6951 42.823C70.9369 42.0286 70.937 40.7307 71.6951 39.9365L71.2973 39.5568L71.6951 39.9365L72.4083 39.1894L73.2958 38.2596H72.0105H64.887H64.6517L64.4892 38.4298L54.5839 48.8068L53.6964 49.7366H54.9818H71.6543C72.6858 49.7366 73.5652 50.6202 73.5652 51.7647C73.5652 52.9091 72.6858 53.7928 71.6543 53.7928H50.0599H49.8246L49.6621 53.9631L44.0367 59.8563C42.1148 61.8697 39.4217 62.9484 37.037 63.5202C34.6606 64.0902 32.6527 64.142 32.1643 64.1455L32.1643 64.1455L32.1574 64.1456C32.1423 64.1459 32.1295 64.1466 32.1203 64.1472L32.1054 64.1483H12.3457C11.3142 64.1483 10.4348 63.2646 10.4348 62.1202C10.4348 60.9757 11.3142 60.092 12.3457 60.092H29.821H30.3121L30.3675 59.604C30.5285 58.1843 30.8482 56.3528 31.4777 54.5216L31.7283 53.7928H30.9576H12.3457C11.3142 53.7928 10.4348 52.9091 10.4348 51.7647C10.4348 50.6202 11.3142 49.7366 12.3457 49.7366H33.9376H34.173L34.3355 49.5663L44.2408 39.1894L45.1283 38.2596H43.8429H4.92188H4.37187V38.8096V75.0752V75.6252H4.92188H79.0781Z" fill="#EFB566" stroke="#15171C" stroke-width="1.1"/>
</svg>
