<svg width="88" height="88" viewBox="0 0 88 88" fill="none" xmlns="http://www.w3.org/2000/svg">
<g clip-path="url(#clip0_283_1254)">
<path d="M73.4053 18.5816L73.404 18.5841L55.3227 54.3528C55.0319 54.9279 54.4851 55.3307 53.8495 55.4377L42.0222 57.4302L41.7505 57.4759L41.6245 57.7209L39.4832 61.883L39.0708 62.6846H39.9723H51.499C52.619 62.6846 53.527 63.5926 53.527 64.7126C53.527 65.8326 52.619 66.7406 51.499 66.7406H50.5622H49.0042L50.2169 67.7187C55.3906 71.8916 58.7045 78.2772 58.7045 85.4225C58.7045 86.5425 57.7965 87.4505 56.6765 87.4505H15.2567C14.1367 87.4505 13.2287 86.5425 13.2287 85.4225C13.2287 78.2772 16.5426 71.8916 21.7163 67.7187L22.929 66.7406H21.371H20.4342C19.3142 66.7406 18.4062 65.8326 18.4062 64.7126C18.4062 63.5926 19.3142 62.6846 20.4342 62.6846H34.174H34.5096L34.6631 62.3862L38.1681 55.5735L38.2936 55.3297L38.1744 55.0827L33.2509 44.8844C32.9763 44.3155 32.9824 43.6513 33.2673 43.0878L51.3532 7.30981C51.3534 7.30953 51.3535 7.30926 51.3536 7.30898C52.8672 4.35243 55.429 2.17278 58.5769 1.15618C61.7254 0.139386 65.0784 0.409273 68.0238 1.91692L68.0238 1.91693C70.969 3.42426 73.1491 5.9861 74.1659 9.13475L74.6893 8.96573L74.1659 9.13475C75.1827 12.2832 74.9128 15.6363 73.4053 18.5816ZM37.4617 43.7806L37.3391 44.0231L37.4572 44.2678L40.1373 49.8196L40.6169 50.8132L41.1217 49.8321L60.5766 12.0164L60.0875 11.7647L60.5766 12.0163C61.089 11.0203 62.3116 10.6283 63.3075 11.1408L63.3076 11.1408C64.3036 11.6531 64.6956 12.8757 64.1831 13.8718L44.5696 51.9961L44.0673 52.9724L45.15 52.79L51.8911 51.6545L52.1652 51.6083L52.2906 51.3603L69.7888 16.7451C69.789 16.7447 69.7892 16.7443 69.7894 16.7439C70.8074 14.7541 70.9892 12.4966 70.306 10.381L70.306 10.3809C69.6227 8.26538 68.1549 6.54018 66.1757 5.52725L65.9251 6.01685L66.1757 5.52724C62.088 3.43526 57.0615 5.05828 54.9695 9.14603L54.9683 9.14847L37.4617 43.7806ZM53.9158 83.3943H54.55L54.4603 82.7665C53.1668 73.7184 45.3675 66.7404 35.9666 66.7404C26.5657 66.7404 18.7664 73.7184 17.4729 82.7665L17.3832 83.3943H18.0174H53.9158Z" fill="#EFB566" stroke="#15171C" stroke-width="1.1"/>
</g>
<defs>
<clipPath id="clip0_283_1254">
<rect width="88" height="88" fill="white"/>
</clipPath>
</defs>
</svg>
