<svg width="88" height="88" viewBox="0 0 88 88" fill="none" xmlns="http://www.w3.org/2000/svg">
<g clip-path="url(#clip0_283_1298)">
<path d="M36.9872 61.805L36.6168 61.5757L36.3088 61.8837L12.8511 85.3414C11.4468 86.7457 9.60249 87.4482 7.75586 87.4482C5.90923 87.4482 4.06493 86.7457 2.66058 85.3414L2.27167 85.7303L2.66056 85.3414C1.29868 83.9796 0.55 82.1719 0.55 80.2461C0.55 78.3203 1.29869 76.5124 2.66053 75.1509L2.66058 75.1508L26.1183 51.6931L26.4263 51.3851L26.197 51.0147C23.0694 45.9627 21.2609 40.0128 21.2609 33.6465C21.2609 15.3986 36.1076 0.551953 54.3555 0.551953C72.6034 0.551953 87.45 15.3986 87.45 33.6465C87.45 51.8944 72.6034 66.741 54.3555 66.741C47.9891 66.741 42.0393 64.9326 36.9872 61.805ZM29.2274 55.1577L28.8409 54.7068L28.421 55.1268L5.52875 78.019C4.93455 78.6132 4.60625 79.4059 4.60625 80.2461C4.60625 81.0863 4.93454 81.879 5.52851 82.4731L5.52857 82.4732C6.75697 83.7016 8.75447 83.7013 9.98291 82.4733L9.98297 82.4732L32.8752 59.581L33.2951 59.1611L32.8443 58.7746C31.5482 57.6633 30.3387 56.4539 29.2274 55.1577ZM54.3555 62.6848C70.3677 62.6848 83.3938 49.6588 83.3938 33.6465C83.3938 17.6342 70.3677 4.6082 54.3555 4.6082C38.3432 4.6082 25.3172 17.6342 25.3172 33.6465C25.3172 49.6588 38.3432 62.6848 54.3555 62.6848Z" fill="#EFB566" stroke="#15171C" stroke-width="1.1"/>
<path d="M54.3555 10.8574C66.921 10.8574 77.1445 21.081 77.1445 33.6465C77.1445 46.212 66.921 56.4356 54.3555 56.4356C41.79 56.4356 31.5664 46.212 31.5664 33.6465C31.5664 21.081 41.79 10.8574 54.3555 10.8574ZM54.3555 52.2793C64.6301 52.2793 72.9883 43.9211 72.9883 33.6465C72.9883 23.3719 64.6301 15.0137 54.3555 15.0137C44.0808 15.0137 35.7227 23.3719 35.7227 33.6465C35.7227 43.9211 44.0808 52.2793 54.3555 52.2793Z" fill="#EFB566" stroke="#15171C"/>
</g>
<defs>
<clipPath id="clip0_283_1298">
<rect width="88" height="88" fill="white"/>
</clipPath>
</defs>
</svg>
