<svg width="78" height="88" viewBox="0 0 78 88" fill="none" xmlns="http://www.w3.org/2000/svg">
<g clip-path="url(#clip0_319_682)">
<path d="M65.5866 25.2024C66.3145 25.5662 66.7545 26.3303 66.7037 27.1426C66.425 31.6128 65.6315 38.4649 63.4374 45.7299C59.0529 60.2479 51.0767 70.4071 39.7594 76.0027C39.4764 76.1427 39.1684 76.2128 38.8606 76.2128C38.5528 76.2128 38.245 76.1428 37.9617 76.0027C26.6444 70.4071 18.6682 60.2479 14.2837 45.7299C12.0893 38.4642 11.2961 31.6124 11.0176 27.1425C10.9669 26.3302 11.4069 25.5663 12.1348 25.2025L37.9534 12.2932C38.5245 12.0079 39.1967 12.0077 39.7676 12.2931L65.5866 25.2024ZM38.6001 71.7683L38.8607 71.9085L39.1213 71.7683C48.8239 66.5482 55.6838 57.3745 59.5547 44.5571C61.3764 38.5248 62.1804 32.784 62.5308 28.5962L62.5619 28.225L62.2287 28.0584L39.1067 16.4974L38.8607 16.3745L38.6148 16.4974L15.4929 28.0584L15.1598 28.225L15.1908 28.5962C15.5408 32.7836 16.3447 38.5243 18.1667 44.5571C22.0376 57.3745 28.8975 66.5482 38.6001 71.7683ZM77.1308 20.5939C77.1569 21.0935 77.7509 33.587 73.496 48.0884C70.9802 56.6624 67.2838 64.1369 62.5172 70.3118C56.5131 78.0897 48.7993 83.8094 39.5828 87.3167C39.3501 87.405 39.1059 87.4492 38.8614 87.4492C38.617 87.4492 38.3727 87.405 38.1401 87.3167C28.9235 83.8093 21.2097 78.0897 15.2056 70.3118C10.439 64.1369 6.74265 56.6625 4.2268 48.0884C-0.0280838 33.587 0.565969 21.0936 0.592008 20.594C0.629862 19.8648 1.05709 19.2121 1.71026 18.8855L37.9544 0.763396C38.5254 0.477957 39.1974 0.477957 39.7684 0.763396L76.0125 18.8855C76.6656 19.2121 77.093 19.8647 77.1308 20.5939ZM69.5615 47.0902C72.8252 36.0449 73.1255 25.9956 73.1101 22.3068L73.1087 21.9684L72.8061 21.8171L39.1074 4.96789L38.8614 4.8449L38.6155 4.96789L4.9166 21.8175L4.61397 21.9688L4.61257 22.3071C4.59733 25.994 4.89728 36.0439 8.1613 47.0901C13.4488 64.9839 23.6984 77.1453 38.6561 83.1629L38.8614 83.2455L39.0667 83.1629C54.0244 77.1453 64.2739 64.9839 69.5615 47.0902Z" fill="#EFB566" stroke="#15171C" stroke-width="1.1"/>
</g>
<defs>
<clipPath id="clip0_319_682">
<rect width="78" height="88" fill="white"/>
</clipPath>
</defs>
</svg>
