<svg width="88" height="88" viewBox="0 0 88 88" fill="none" xmlns="http://www.w3.org/2000/svg">
<path d="M51.2059 15.5332V16.0832H51.7559H73.5871C74.3554 16.0832 75.0576 16.5172 75.4012 17.2044L87.2358 40.8739L87.7259 40.629L87.2342 40.8755C87.3718 41.1499 87.45 41.4562 87.4498 41.7807V41.7809C87.4498 49.4245 81.2305 55.6438 73.5869 55.6438C65.9433 55.6438 59.724 49.4245 59.724 41.7809C59.724 41.4562 59.8022 41.1499 59.9398 40.8755L60.1781 40.4001L60.1757 40.3989L69.9074 20.9354L70.3054 20.1395H69.4155H51.7559H51.2059V20.6895V72.4883V73.0383H51.7559H54.3555C61.1833 73.0383 66.7391 78.594 66.7391 85.4219C66.7391 86.5419 65.831 87.45 64.7109 87.45H23.2891C22.169 87.45 21.2609 86.5419 21.2609 85.4219C21.2609 78.594 26.8167 73.0383 33.6445 73.0383H36.244H36.794V72.4883V20.6895V20.1395H36.244H18.5843H17.6944L18.0924 20.9354L27.8243 40.3991L27.8219 40.4004L28.06 40.8755C28.1976 41.1499 28.2758 41.4562 28.2758 41.7809C28.2758 49.4245 22.0565 55.6438 14.4129 55.6438C6.76935 55.6438 0.55 49.4245 0.55 41.7809C0.55 41.4562 0.628258 41.1499 0.765758 40.8753L1.00358 40.4003L1.00141 40.3992L12.5988 17.2044C12.5988 17.2044 12.5988 17.2044 12.5988 17.2044C12.9426 16.5172 13.6447 16.0832 14.4129 16.0832H36.2441H36.7941V15.5332V7.75586C36.7941 3.78302 40.0272 0.55 44 0.55C47.9728 0.55 51.2059 3.78302 51.2059 7.75586V15.5332ZM14.9049 23.6302L14.4129 22.6464L13.921 23.6302L6.2576 38.9568L5.85961 39.7528H6.74953H22.0763H22.9662L22.5682 38.9568L14.9049 23.6302ZM5.52148 43.809H4.78904L4.99331 44.5124C6.17863 48.5942 9.95127 51.5876 14.4129 51.5876C18.8746 51.5876 22.6472 48.5942 23.8325 44.5124L24.0368 43.809H23.3044H5.52148ZM25.7876 82.661L25.5294 83.3938H26.3063H61.6937H62.4706L62.2124 82.661C61.0715 79.4232 57.9816 77.0945 54.3555 77.0945H33.6445C30.0184 77.0945 26.9285 79.4232 25.7876 82.661ZM40.8504 72.4883V73.0383H41.4004H46.5996H47.1496V72.4883V20.6895V20.1395H46.5996H41.4004H40.8504V20.6895V72.4883ZM40.8504 15.5332V16.0832H41.4004H46.5996H47.1496V15.5332V7.75586C47.1496 6.01867 45.7372 4.60625 44 4.60625C42.2628 4.60625 40.8504 6.01867 40.8504 7.75586V15.5332ZM81.2505 39.7528H82.1404L81.7424 38.9568L74.0792 23.6302L73.5873 22.6464L73.0953 23.6302L65.4319 38.9568L65.0339 39.7528H65.9239H81.2505ZM64.6956 43.809H63.9632L64.1675 44.5124C65.3528 48.5942 69.1254 51.5876 73.5871 51.5876C78.0486 51.5876 81.8212 48.5942 83.0067 44.5124L83.211 43.809H82.4785H64.6956Z" fill="#EFB566" stroke="#15171C" stroke-width="1.1"/>
</svg>
