<svg width="82" height="82" viewBox="0 0 82 82" fill="none" xmlns="http://www.w3.org/2000/svg">
<g clip-path="url(#clip0_283_1257)">
<path d="M71.8006 26.2642V26.8142H72.3506H79.5977C80.6206 26.8142 81.45 27.6436 81.45 28.6666V38.316C81.45 39.339 80.6206 40.1683 79.5977 40.1683H77.1753H76.6253V40.7183V64.8619V65.4119H77.1753H79.5977C80.6206 65.4119 81.45 66.2412 81.45 67.2642V76.9136C81.45 77.9366 80.6206 78.766 79.5977 78.766H2.40234C1.37937 78.766 0.55 77.9366 0.55 76.9136V67.2642C0.55 66.2412 1.37937 65.4119 2.40234 65.4119H4.82471H5.37471V64.8619V40.7183V40.1683H4.82471H2.40234C1.37937 40.1683 0.55 39.339 0.55 38.316V28.6666C0.55 27.6436 1.37937 26.8142 2.40234 26.8142H9.64941H10.1994V26.2642V23.298C10.1994 19.7595 12.2393 16.6875 15.208 15.1945L15.7424 14.9257L15.4297 14.4157C14.7454 13.2995 14.3502 11.9885 14.3502 10.5856C14.3502 6.53259 17.6483 3.23457 21.7012 3.23457C25.754 3.23457 29.0522 6.53259 29.0522 10.5856C29.0522 11.9885 28.6571 13.2995 27.9726 14.4157L27.6599 14.9257L28.1944 15.1945C29.2402 15.7204 30.1707 16.4426 30.9379 17.3133L31.3506 17.7816L31.7632 17.3133C32.5305 16.4426 33.461 15.7204 34.5068 15.1945L35.0412 14.9258L34.7286 14.4157C34.0442 13.2995 33.649 11.9885 33.649 10.5856C33.649 6.53274 36.9472 3.23457 41 3.23457C45.0528 3.23457 48.351 6.53259 48.351 10.5856C48.351 11.9885 47.9559 13.2995 47.2715 14.4157L46.9587 14.9257L47.4932 15.1945C48.539 15.7204 49.4695 16.4426 50.2368 17.3133L50.6494 17.7816L51.0621 17.3133C51.8293 16.4426 52.7598 15.7204 53.8056 15.1945L54.3401 14.9258L54.0274 14.4157C53.3431 13.2995 52.9478 11.9885 52.9478 10.5856C52.9478 6.53275 56.246 3.23457 60.2988 3.23457C64.3516 3.23457 67.6498 6.53259 67.6498 10.5856C67.6498 11.9885 67.2547 13.2995 66.5703 14.4157L66.2575 14.9257L66.7921 15.1945C69.7607 16.6874 71.8006 19.7593 71.8006 23.298V26.2642ZM67.5461 26.8142H68.0961V26.2642V23.298C68.0961 20.3412 65.6914 17.9365 62.7346 17.9365H57.8632C54.9064 17.9365 52.5017 20.3412 52.5019 23.298V26.2642V26.8142H53.0519H67.5461ZM48.2472 26.8142H48.7972V26.2642V23.298C48.7972 20.3412 46.3926 17.9365 43.4358 17.9365H38.5643C35.6076 17.9365 33.2029 20.3412 33.2031 23.298V26.2642V26.8142H33.7531H48.2472ZM13.9041 23.298V23.848H13.9043V26.2642V26.8142H14.4543H28.9484H29.4984V26.2642V23.298C29.4984 20.3412 27.0937 17.9365 24.137 17.9365H19.2655C16.3088 17.9365 13.9041 20.3412 13.9041 23.298ZM4.80469 30.5189H4.25469V31.0689V35.9136V36.4636H4.80469H77.1953H77.7453V35.9136V31.0689V30.5189H77.1953H4.80469ZM77.1953 75.0613H77.7453V74.5113V69.6666V69.1166H77.1953H4.80469H4.25469V69.6666V74.5113V75.0613H4.80469H77.1953ZM72.3706 65.4119H72.9206V64.8619V40.7183V40.1683H72.3706H9.62939H9.07939V40.7183V64.8619V65.4119H9.62939H72.3706ZM63.9451 10.5854C63.9451 8.57439 62.31 6.9391 60.2988 6.9391C58.2876 6.9391 56.6525 8.57439 56.6525 10.5854C56.6525 12.5964 58.2878 14.2317 60.2988 14.2317C62.3098 14.2317 63.9451 12.5964 63.9451 10.5854ZM44.6463 10.5854C44.6463 8.57439 43.0112 6.9391 41 6.9391C38.9888 6.9391 37.3537 8.57459 37.3537 10.5856C37.3537 12.5966 38.9888 14.2319 41 14.2319C43.0112 14.2319 44.6463 12.5964 44.6463 10.5854ZM25.3475 10.5854C25.3475 8.5744 23.7124 6.9391 21.7012 6.9391C19.69 6.9391 18.0549 8.5744 18.0549 10.5854C18.0549 12.5964 19.6901 14.2317 21.7012 14.2317C23.7122 14.2317 25.3475 12.5964 25.3475 10.5854Z" fill="#EFB566" stroke="#15171C" stroke-width="1.1"/>
<path d="M19.7451 49.8138H19.1951V50.3638V55.1864V55.7364H19.7451H62.2551H62.8051V55.1864V50.3638V49.8138H62.2551H19.7451ZM64.6574 59.4411H17.3428C16.3198 59.4411 15.4904 58.6117 15.4904 57.5887V47.9614C15.4904 46.9384 16.3198 46.1091 17.3428 46.1091H64.6574C65.6804 46.1091 66.5098 46.9384 66.5098 47.9614V57.5887C66.5098 58.6117 65.6804 59.4411 64.6574 59.4411Z" fill="#EFB566" stroke="#15171C" stroke-width="1.1"/>
</g>
<defs>
<clipPath id="clip0_283_1257">
<rect width="82" height="82" fill="white"/>
</clipPath>
</defs>
</svg>
